<svg width="16" height="16" viewBox="0 0 16 16" fill="none" xmlns="http://www.w3.org/2000/svg">
<path fill-rule="evenodd" clip-rule="evenodd" d="M7.99992 14.6663C11.6818 14.6663 14.6666 11.6816 14.6666 7.99967C14.6666 4.31778 11.6818 1.33301 7.99992 1.33301C4.31802 1.33301 1.33325 4.31778 1.33325 7.99967C1.33325 11.6816 4.31802 14.6663 7.99992 14.6663ZM8.49992 5.33301C8.49992 5.05687 8.27606 4.83301 7.99992 4.83301C7.72378 4.83301 7.49992 5.05687 7.49992 5.33301V7.49968H5.33325C5.05711 7.49968 4.83325 7.72353 4.83325 7.99967C4.83325 8.27582 5.05711 8.49967 5.33325 8.49967H7.49992V10.6663C7.49992 10.9425 7.72378 11.1663 7.99992 11.1663C8.27606 11.1663 8.49992 10.9425 8.49992 10.6663V8.49967H10.6666C10.9427 8.49967 11.1666 8.27582 11.1666 7.99967C11.1666 7.72353 10.9427 7.49968 10.6666 7.49968H8.49992V5.33301Z" fill="#FFFFFA"/>
<path d="M8.49992 5.33301C8.49992 5.05687 8.27606 4.83301 7.99992 4.83301C7.72378 4.83301 7.49992 5.05687 7.49992 5.33301V7.49968H5.33325C5.05711 7.49968 4.83325 7.72353 4.83325 7.99967C4.83325 8.27582 5.05711 8.49967 5.33325 8.49967H7.49992V10.6663C7.49992 10.9425 7.72378 11.1663 7.99992 11.1663C8.27606 11.1663 8.49992 10.9425 8.49992 10.6663V8.49967H10.6666C10.9427 8.49967 11.1666 8.27582 11.1666 7.99967C11.1666 7.72353 10.9427 7.49968 10.6666 7.49968H8.49992V5.33301Z" fill="black"/>
</svg>
