<svg width="24" height="24" viewBox="0 0 24 24" fill="none" xmlns="http://www.w3.org/2000/svg">
<path d="M8.99988 11C8.99988 11.5523 8.55216 12 7.99988 12C7.44759 12 6.99988 11.5523 6.99988 11C6.99988 10.4477 7.44759 10 7.99988 10C8.55216 10 8.99988 10.4477 8.99988 11Z" fill="#393938"/>
<path d="M15.9999 12C16.5522 12 16.9999 11.5523 16.9999 11C16.9999 10.4477 16.5522 10 15.9999 10C15.4476 10 14.9999 10.4477 14.9999 11C14.9999 11.5523 15.4476 12 15.9999 12Z" fill="#393938"/>
<path fill-rule="evenodd" clip-rule="evenodd" d="M7.25038 7.02763C7.25005 7.01846 7.24988 7.00925 7.24988 7C7.24988 4.37665 9.37653 2.25 11.9999 2.25C14.6232 2.25 16.7499 4.37665 16.7499 7C16.7499 7.00925 16.7497 7.01846 16.7494 7.02763C18.4962 7.23363 19.9283 8.5707 20.2236 10.3424L21.2236 16.3424C21.6299 18.7805 19.7498 21 17.278 21H6.72169C4.24994 21 2.36976 18.7805 2.77612 16.3424L3.77612 10.3424C4.0714 8.57068 5.50354 7.2336 7.25038 7.02763ZM8.74988 7C8.74988 5.20507 10.205 3.75 11.9999 3.75C13.7948 3.75 15.2499 5.20507 15.2499 7H8.74988ZM4.25571 16.589L5.25571 10.589C5.45662 9.38353 6.49959 8.5 7.72169 8.5H16.278C17.5001 8.5 18.5431 9.38353 18.744 10.589L19.744 16.589C19.998 18.1128 18.8229 19.5 17.278 19.5H6.72169C5.17684 19.5 4.00174 18.1128 4.25571 16.589Z" fill="#393938"/>
</svg>
