<svg width="24" height="24" viewBox="0 0 24 24" fill="none" xmlns="http://www.w3.org/2000/svg">
<path fill-rule="evenodd" clip-rule="evenodd" d="M9.6932 3.42392C11.1278 2.62692 12.8722 2.62692 14.3068 3.42393L19.3068 6.2017C20.8148 7.03946 21.75 8.62891 21.75 10.3539V14.6467C21.75 16.3718 20.8148 17.9612 19.3068 18.799L14.3068 21.5767C12.8722 22.3738 11.1278 22.3737 9.69319 21.5767L4.6932 18.799C3.18524 17.9612 2.25 16.3718 2.25 14.6467V10.3539C2.25 8.62891 3.18524 7.03946 4.6932 6.2017L9.6932 3.42392ZM13.5783 4.73516C12.5968 4.18984 11.4032 4.18984 10.4217 4.73516L9.58408 5.20048L16.0247 9.23099L18.7526 7.61697C18.6958 7.58064 18.6377 7.54594 18.5783 7.51294L13.5783 4.73516ZM19.8157 8.73086L14.3791 11.9475L14.377 11.9488C13.8682 12.2537 13.3162 12.4556 12.75 12.5541V20.5868C13.0359 20.519 13.3148 20.4119 13.5783 20.2655L18.5783 17.4877C19.6101 16.9145 20.25 15.827 20.25 14.6467V10.3539C20.25 9.77382 20.0954 9.21611 19.8157 8.73086ZM11.25 12.5749C10.6811 12.492 10.1235 12.3053 9.60637 12.0144L4.08819 8.91036C3.86939 9.3516 3.75 9.84412 3.75 10.3539V14.6467C3.75 15.827 4.3899 16.9145 5.42166 17.4877L10.4217 20.2655C10.6852 20.4119 10.9641 20.519 11.25 20.5868V12.5749ZM5.06799 7.74048L10.3418 10.7071C11.3595 11.2795 12.6061 11.2621 13.6073 10.6613L13.6113 10.6589L14.5713 10.0909L8.08622 6.03263L5.42166 7.51294C5.298 7.58164 5.17997 7.65773 5.06799 7.74048Z" fill="#393938"/>
</svg>
