<svg width="24" height="24" viewBox="0 0 24 24" fill="none" xmlns="http://www.w3.org/2000/svg">
<path fill-rule="evenodd" clip-rule="evenodd" d="M3.05738 6.20075L3.91682 4.48188C4.52732 3.26088 6.1546 2.99681 7.11988 3.96209L9.40162 6.24383C10.0103 6.85255 10.1613 7.78249 9.77626 8.55247L9.51353 9.07793C9.09083 9.92333 9.0838 10.9237 9.57634 11.7304C9.96194 12.362 10.4556 13.0873 10.9472 13.5789C11.371 14.0026 11.9682 14.4279 12.5295 14.7841C13.4701 15.3812 14.67 15.2686 15.5673 14.6084C16.3675 14.0196 17.4803 14.1163 18.167 14.8343L20.1264 16.8831C21.057 17.8562 20.7797 19.4522 19.5754 20.0543L17.7991 20.9425C16.4186 21.6327 14.8545 21.9259 13.3953 21.423C11.6426 20.8188 9.13069 19.6108 6.75988 17.24C4.38906 14.8692 3.18108 12.3573 2.5769 10.6046C2.07391 9.14538 2.36714 7.58124 3.05738 6.20075ZM4.39902 6.87157L5.25846 5.1527C5.41109 4.84745 5.81791 4.78143 6.05922 5.02275L8.34096 7.30449C8.49314 7.45667 8.53087 7.68915 8.43462 7.88165L8.17189 8.40711C7.54625 9.6584 7.50281 11.2128 8.2961 12.5121C8.69481 13.1651 9.26372 14.0167 9.88659 14.6396C10.4283 15.1813 11.1364 15.6765 11.7256 16.0505C13.2554 17.0216 15.1277 16.7941 16.4563 15.8166C16.6491 15.6746 16.9174 15.6979 17.0829 15.871L19.0424 17.9199C19.275 18.1631 19.2057 18.5621 18.9046 18.7127L17.1283 19.6008C15.9769 20.1765 14.8426 20.3352 13.8841 20.0048C12.2931 19.4564 9.99458 18.3534 7.82054 16.1793C5.64649 14.0053 4.54344 11.7067 3.99501 10.1157C3.66462 9.15725 3.82332 8.02299 4.39902 6.87157Z" fill="#393938"/>
</svg>
