<svg width="32" height="32" viewBox="0 0 32 32" fill="none" xmlns="http://www.w3.org/2000/svg">
<path fill-rule="evenodd" clip-rule="evenodd" d="M21.3333 15.9997C21.3333 18.9452 18.9455 21.333 16 21.333C13.0545 21.333 10.6667 18.9452 10.6667 15.9997C10.6667 13.0542 13.0545 10.6663 16 10.6663C18.9455 10.6663 21.3333 13.0542 21.3333 15.9997ZM19.3333 15.9997C19.3333 17.8406 17.841 19.333 16 19.333C14.1591 19.333 12.6667 17.8406 12.6667 15.9997C12.6667 14.1587 14.1591 12.6663 16 12.6663C17.841 12.6663 19.3333 14.1587 19.3333 15.9997Z" fill="#FFFFFA"/>
<path fill-rule="evenodd" clip-rule="evenodd" d="M3.18918 17.0509C2.99033 16.3647 2.99033 15.6347 3.18918 14.9484C4.79876 9.39381 9.92379 5.33301 15.9973 5.33301C22.0707 5.33301 27.1958 9.39381 28.8054 14.9484C29.0042 15.6347 29.0042 16.3647 28.8054 17.0509C27.1958 22.6055 22.0707 26.6663 15.9973 26.6663C9.92379 26.6663 4.79876 22.6055 3.18918 17.0509ZM5.11015 15.5051C6.47865 10.7824 10.8377 7.33301 15.9973 7.33301C21.1568 7.33301 25.5159 10.7824 26.8844 15.5051C26.9779 15.8277 26.9779 16.1717 26.8844 16.4943C25.5159 21.2169 21.1568 24.6663 15.9973 24.6663C10.8377 24.6663 6.47865 21.2169 5.11015 16.4943C5.01667 16.1717 5.01667 15.8277 5.11015 15.5051Z" fill="#FFFFFA"/>
</svg>
