<svg width="16" height="16" viewBox="0 0 16 16" fill="none" xmlns="http://www.w3.org/2000/svg">
<path fill-rule="evenodd" clip-rule="evenodd" d="M8.00016 14.6673C11.6821 14.6673 14.6668 11.6825 14.6668 8.00065C14.6668 4.31875 11.6821 1.33398 8.00016 1.33398C4.31826 1.33398 1.3335 4.31875 1.3335 8.00065C1.3335 11.6825 4.31826 14.6673 8.00016 14.6673ZM11.187 6.52087C11.3823 6.32561 11.3823 6.00903 11.187 5.81376C10.9918 5.6185 10.6752 5.6185 10.4799 5.81376L7.16683 9.12688L5.52038 7.48043C5.32512 7.28517 5.00854 7.28517 4.81328 7.48043C4.61801 7.67569 4.61801 7.99228 4.81328 8.18754L6.81328 10.1875C7.00854 10.3828 7.32512 10.3828 7.52038 10.1875L11.187 6.52087Z" fill="#4EB75E"/>
<path d="M11.187 6.52087C11.3823 6.32561 11.3823 6.00903 11.187 5.81376C10.9918 5.6185 10.6752 5.6185 10.4799 5.81376L7.16683 9.12688L5.52038 7.48043C5.32512 7.28517 5.00854 7.28517 4.81328 7.48043C4.61801 7.67569 4.61801 7.99228 4.81328 8.18754L6.81328 10.1875C7.00854 10.3828 7.32512 10.3828 7.52038 10.1875L11.187 6.52087Z" fill="#FFFFFA"/>
</svg>
