<svg width="32" height="32" viewBox="0 0 32 32" fill="none" xmlns="http://www.w3.org/2000/svg">
<path fill-rule="evenodd" clip-rule="evenodd" d="M14.8111 27.0108C15.5538 27.4413 16.4464 27.4413 17.1891 27.0108C20.1626 25.2875 27.7766 20.4022 29.078 14.891C30.2533 9.91441 27.2706 4.74361 22.2199 4.66931C22.1157 4.66777 22.0099 4.66699 21.9025 4.66699C19.8693 4.66699 18.0541 5.68256 16.99 6.43339C16.4086 6.84358 15.5916 6.84358 15.0102 6.43339C13.946 5.68256 12.1309 4.66699 10.0976 4.66699C9.99029 4.66699 9.88449 4.66777 9.78023 4.66931C4.72952 4.74361 1.7469 9.91441 2.92212 14.891C4.22361 20.4022 11.8376 25.2875 14.8111 27.0108ZM27.1316 14.4313C26.6311 16.5507 24.8122 18.8009 22.4462 20.8639C20.1446 22.8708 17.6199 24.4495 16.1862 25.2804C16.0638 25.3514 15.9364 25.3514 15.8139 25.2804C14.3803 24.4496 11.8556 22.8708 9.55397 20.8639C7.18793 18.8009 5.36909 16.5507 4.86858 14.4313C3.89261 10.2985 6.41868 6.71898 9.80965 6.66909C9.90399 6.6677 9.99998 6.66699 10.0976 6.66699C11.5126 6.66699 12.9107 7.39975 13.8572 8.06757C15.1299 8.96551 16.8703 8.96552 18.143 8.06757C19.0895 7.39975 20.4876 6.66699 21.9025 6.66699C22.0002 6.66699 22.0962 6.6677 22.1905 6.66909C25.5815 6.71898 28.1076 10.2985 27.1316 14.4313Z" fill="#FFFFFA"/>
</svg>
