<svg width="24" height="24" viewBox="0 0 24 24" fill="none" xmlns="http://www.w3.org/2000/svg">
<path d="M13.9998 18.7496C14.414 18.7496 14.7498 18.4138 14.7498 17.9996C14.7498 17.5854 14.414 17.2496 13.9998 17.2496H9.99976C9.58554 17.2496 9.24976 17.5854 9.24976 17.9996C9.24976 18.4138 9.58554 18.7496 9.99976 18.7496H13.9998Z" fill="#393938"/>
<path fill-rule="evenodd" clip-rule="evenodd" d="M3.83237 8.53347L9.50096 3.99859C10.9618 2.82989 13.0376 2.8299 14.4985 3.9986L20.1671 8.53347C21.2987 9.43872 21.8521 10.8852 21.6139 12.3145L20.5568 18.6572C20.2353 20.5859 18.5666 21.9996 16.6112 21.9996H7.38825C5.43289 21.9996 3.76413 20.5859 3.44267 18.6572L2.38557 12.3145C2.14734 10.8852 2.70081 9.43871 3.83237 8.53347ZM4.76941 9.70477L10.438 5.1699C11.351 4.43946 12.6484 4.43946 13.5615 5.1699L19.2301 9.70477C19.9373 10.2706 20.2832 11.1746 20.1343 12.0679L19.0772 18.4106C18.8763 19.616 17.8333 20.4996 16.6112 20.4996H7.38825C6.16615 20.4996 5.12318 19.616 4.92226 18.4106L3.86516 12.0679C3.71627 11.1746 4.06219 10.2706 4.76941 9.70477Z" fill="#393938"/>
</svg>
