<svg width="16" height="16" viewBox="0 0 16 16" fill="none" xmlns="http://www.w3.org/2000/svg">
<path fill-rule="evenodd" clip-rule="evenodd" d="M7.99967 14.6654C11.6816 14.6654 14.6663 11.6806 14.6663 7.9987C14.6663 4.3168 11.6816 1.33203 7.99967 1.33203C4.31778 1.33203 1.33301 4.3168 1.33301 7.9987C1.33301 11.6806 4.31778 14.6654 7.99967 14.6654ZM8.49967 5.33203C8.49967 5.05589 8.27582 4.83203 7.99967 4.83203C7.72353 4.83203 7.49968 5.05589 7.49968 5.33203V7.4987H5.33301C5.05687 7.4987 4.83301 7.72256 4.83301 7.9987C4.83301 8.27484 5.05687 8.4987 5.33301 8.4987H7.49968V10.6654C7.49968 10.9415 7.72353 11.1654 7.99967 11.1654C8.27582 11.1654 8.49967 10.9415 8.49967 10.6654V8.4987H10.6663C10.9425 8.4987 11.1663 8.27484 11.1663 7.9987C11.1663 7.72256 10.9425 7.4987 10.6663 7.4987H8.49967V5.33203Z" fill="#FFFFFA"/>
<path d="M8.49967 5.33203C8.49967 5.05589 8.27582 4.83203 7.99967 4.83203C7.72353 4.83203 7.49968 5.05589 7.49968 5.33203V7.4987H5.33301C5.05687 7.4987 4.83301 7.72256 4.83301 7.9987C4.83301 8.27484 5.05687 8.4987 5.33301 8.4987H7.49968V10.6654C7.49968 10.9415 7.72353 11.1654 7.99967 11.1654C8.27582 11.1654 8.49967 10.9415 8.49967 10.6654V8.4987H10.6663C10.9425 8.4987 11.1663 8.27484 11.1663 7.9987C11.1663 7.72256 10.9425 7.4987 10.6663 7.4987H8.49967V5.33203Z" fill="black"/>
</svg>
