<svg width="32" height="32" viewBox="0 0 32 32" fill="none" xmlns="http://www.w3.org/2000/svg">
<path d="M12 18.0003C12.7364 18.0003 13.3333 17.4034 13.3333 16.667C13.3333 15.9306 12.7364 15.3337 12 15.3337C11.2636 15.3337 10.6667 15.9306 10.6667 16.667C10.6667 17.4034 11.2636 18.0003 12 18.0003Z" fill="#FFFFFA"/>
<path d="M17.3333 18.0003C18.0697 18.0003 18.6667 17.4034 18.6667 16.667C18.6667 15.9306 18.0697 15.3337 17.3333 15.3337C16.597 15.3337 16 15.9306 16 16.667C16 17.4034 16.597 18.0003 17.3333 18.0003Z" fill="#FFFFFA"/>
<path d="M24 16.667C24 17.4034 23.403 18.0003 22.6667 18.0003C21.9303 18.0003 21.3333 17.4034 21.3333 16.667C21.3333 15.9306 21.9303 15.3337 22.6667 15.3337C23.403 15.3337 24 15.9306 24 16.667Z" fill="#FFFFFA"/>
<path fill-rule="evenodd" clip-rule="evenodd" d="M5.21454 15.5971L5.66368 20.0218C5.6607 20.0503 5.65505 20.0935 5.64451 20.1492C5.61829 20.2876 5.5622 20.5006 5.44272 20.7547C5.20954 21.2507 4.71256 21.9522 3.61701 22.5674C3.36082 22.7112 3.09074 22.9613 2.97146 23.3467C2.85236 23.7316 2.933 24.0918 3.06297 24.3594C3.29986 24.8472 3.78107 25.2172 4.28436 25.4993C5.34253 26.0925 7.13948 26.6482 9.84676 26.9889L11.7425 27.3394L12.5805 27.6323C20.6035 30.437 28.9999 24.4898 28.9999 15.9957V15.5465C28.9999 8.98449 23.6742 3.66699 17.1072 3.66699C10.5402 3.66699 5.21454 8.98449 5.21454 15.5465V15.5971ZM7.66657 19.949L7.21466 15.4971C7.24131 10.0646 11.659 5.66699 17.1072 5.66699C22.572 5.66699 26.9999 10.0913 26.9999 15.5465V15.9957C26.9999 23.109 19.9666 28.0956 13.2405 25.7444L12.2573 25.4007L10.153 25.0117L10.124 25.008C7.63803 24.6973 6.14645 24.2167 5.37265 23.8142C6.35215 23.0996 6.92504 22.3025 7.25266 21.6057C7.45283 21.1799 7.55622 20.803 7.60956 20.5214C7.63624 20.3806 7.6505 20.2631 7.6581 20.1745C7.6619 20.1301 7.66405 20.0929 7.66523 20.0634C7.66583 20.0487 7.66618 20.0359 7.66639 20.0251L7.66659 20.0105L7.66663 20.0043L7.66664 20.0015L7.66664 19.9989L6.66664 20.0003C7.65741 19.9989 7.66655 19.9983 7.66664 19.9989L7.66657 19.949Z" fill="#FFFFFA"/>
</svg>
