<svg width="16" height="16" viewBox="0 0 16 16" fill="none" xmlns="http://www.w3.org/2000/svg">
<path fill-rule="evenodd" clip-rule="evenodd" d="M7.33333 2.83301C6.32081 2.83301 5.5 3.65382 5.5 4.66634V9.49967H3.5C2.39543 9.49967 1.5 10.3951 1.5 11.4997C1.5 12.6042 2.39543 13.4997 3.5 13.4997H4C5.38071 13.4997 6.5 12.3804 6.5 10.9997V6.16634H12.1667V8.83301H10C8.98748 8.83301 8.16667 9.65382 8.16667 10.6663C8.16667 11.6789 8.98748 12.4997 10 12.4997H10.6667C12.0474 12.4997 13.1667 11.3804 13.1667 9.99967V4.66634C13.1667 3.65382 12.3459 2.83301 11.3333 2.83301H7.33333ZM2.5 11.4997C2.5 10.9474 2.94772 10.4997 3.5 10.4997H5.5V10.9997C5.5 11.8281 4.82843 12.4997 4 12.4997H3.5C2.94772 12.4997 2.5 12.052 2.5 11.4997ZM11.3333 3.83301C11.7936 3.83301 12.1667 4.2061 12.1667 4.66634V5.16634H6.5V4.66634C6.5 4.2061 6.8731 3.83301 7.33333 3.83301H11.3333ZM9.16667 10.6663C9.16667 10.2061 9.53976 9.83301 10 9.83301H12.1667V9.99967C12.1667 10.8281 11.4951 11.4997 10.6667 11.4997H10C9.53976 11.4997 9.16667 11.1266 9.16667 10.6663Z" fill="#D0D0D0"/>
</svg>
