<svg width="19" height="19" viewBox="0 0 19 19" fill="none" xmlns="http://www.w3.org/2000/svg">
<path fill-rule="evenodd" clip-rule="evenodd" d="M1.05738 3.20173L1.91682 1.48286C2.52732 0.26186 4.1546 -0.00221407 5.11988 0.963068L7.40162 3.2448C8.01034 3.85352 8.16125 4.78347 7.77626 5.55345L7.51353 6.07891C7.09083 6.92431 7.0838 7.92469 7.57634 8.7314C7.96194 9.36295 8.4556 10.0883 8.94725 10.5799C9.37097 11.0036 9.96825 11.4288 10.5295 11.7851C11.4701 12.3821 12.67 12.2696 13.5673 11.6093C14.3675 11.0206 15.4803 11.1173 16.167 11.8352L18.1264 13.8841C19.057 14.8571 18.7797 16.4531 17.5754 17.0553L15.7991 17.9434C14.4186 18.6337 12.8545 18.9269 11.3953 18.4239C9.64257 17.8198 7.13069 16.6118 4.75988 14.241C2.38906 11.8701 1.18108 9.35826 0.576896 7.60553C0.0739071 6.14636 0.367139 4.58222 1.05738 3.20173ZM2.39902 3.87255L3.25846 2.15368C3.41109 1.84843 3.81791 1.78241 4.05922 2.02373L6.34096 4.30546C6.49314 4.45764 6.53087 4.69013 6.43462 4.88263L6.17189 5.40809C5.54625 6.65937 5.50281 8.21375 6.2961 9.51305C6.69481 10.1661 7.26372 11.0177 7.88659 11.6406C8.42826 12.1822 9.13645 12.6775 9.72563 13.0515C11.2554 14.0226 13.1277 13.7951 14.4563 12.8175C14.6491 12.6756 14.9174 12.6989 15.0829 12.872L17.0424 14.9208C17.275 15.1641 17.2057 15.5631 16.9046 15.7136L15.1283 16.6018C13.9769 17.1775 12.8426 17.3362 11.8841 17.0058C10.2931 16.4574 7.99458 15.3543 5.82054 13.1803C3.64649 11.0063 2.54344 8.70771 1.99501 7.1167C1.66462 6.15823 1.82332 5.02397 2.39902 3.87255Z" fill="#071209"/>
</svg>
