<svg width="32" height="32" viewBox="0 0 32 32" fill="none" xmlns="http://www.w3.org/2000/svg">
<path fill-rule="evenodd" clip-rule="evenodd" d="M8.68933 3.05996C4.83262 1.23309 0.782792 5.18629 2.51599 9.08599L5.1236 14.9531C5.42243 15.6255 5.42243 16.393 5.12359 17.0654L2.51599 22.9325C0.782792 26.8322 4.83261 30.7854 8.68933 28.9585L27.2495 20.1668C30.7576 18.5051 30.7576 13.5134 27.2495 11.8516L8.68933 3.05996ZM4.34361 8.27371C3.3639 6.06936 5.65311 3.83478 7.83316 4.86744L26.3934 13.6591C28.3763 14.5984 28.3763 17.4201 26.3934 18.3594L7.83316 27.151C5.65311 28.1837 3.3639 25.9491 4.34361 23.7448L6.95122 17.8777C7.07636 17.5961 7.17188 17.3051 7.23778 17.0091H15.6884C16.2407 17.0091 16.6884 16.5614 16.6884 16.0091C16.6884 15.4568 16.2407 15.0091 15.6884 15.0091H7.23773C7.17183 14.7132 7.07633 14.4223 6.95122 14.1408L4.34361 8.27371Z" fill="#FFFFFA"/>
</svg>
