<svg width="16" height="16" viewBox="0 0 16 16" fill="none" xmlns="http://www.w3.org/2000/svg">
<path d="M10.0139 7.02609C10.2125 6.83422 10.218 6.51769 10.0261 6.31909C9.83423 6.12049 9.5177 6.11503 9.3191 6.3069L7.59781 7.96984L6.6821 7.07761C6.48432 6.8849 6.16777 6.88901 5.97506 7.08679C5.78235 7.28457 5.78646 7.60113 5.98424 7.79384L7.2474 9.02461C7.44096 9.21321 7.74937 9.21387 7.94373 9.02609L10.0139 7.02609Z" fill="#393938"/>
<path fill-rule="evenodd" clip-rule="evenodd" d="M8.64357 1.04056C8.22853 0.884918 7.77115 0.884918 7.35611 1.04056L3.35611 2.54056C2.6406 2.80888 2.16651 3.49279 2.1665 4.25705L2.16651 7.99983C2.16651 9.40125 3.13447 10.7136 4.15632 11.7278C5.20134 12.7651 6.41815 13.6026 7.12862 14.0551C7.65829 14.3925 8.32445 14.4095 8.8701 14.0907C9.58804 13.6714 10.8068 12.889 11.8523 11.8636C12.8836 10.8521 13.8332 9.51925 13.8332 7.99983V4.25706C13.8332 3.4928 13.3591 2.80888 12.6436 2.54056L8.64357 1.04056ZM7.70724 1.97689C7.89589 1.90614 8.10379 1.90614 8.29244 1.97689L12.2924 3.47689C12.6177 3.59887 12.8332 3.90973 12.8332 4.25706V7.99983C12.8332 9.1067 12.1273 10.1932 11.1521 11.1496C10.1912 12.0921 9.05229 12.8262 8.36572 13.2272C8.14699 13.355 7.8828 13.3499 7.66582 13.2117C6.98079 12.7754 5.83224 11.9823 4.86078 11.0181C3.86615 10.0308 3.16651 8.97078 3.16651 7.99983L3.1665 4.25706C3.1665 3.90973 3.38194 3.59887 3.70723 3.47689L7.70724 1.97689Z" fill="#393938"/>
</svg>
