<svg width="24" height="24" viewBox="0 0 24 24" fill="none" xmlns="http://www.w3.org/2000/svg">
<path d="M17.2524 13.3296C16.4554 12.8741 15.4835 12.8471 14.6624 13.2577L14.2677 13.455C12.8403 14.1687 11.1602 14.1687 9.73281 13.455L9.33809 13.2577C8.51702 12.8471 7.5451 12.8741 6.74807 13.3296L6.4376 13.507C5.88089 13.8251 5.26326 13.9854 4.64591 13.99L5.08446 17.7177C5.32145 19.7321 7.02871 21.2503 9.05706 21.2503L9.25004 21.2503V18.2503C9.25004 16.7315 10.4813 15.5003 12 15.5003C13.5188 15.5003 14.75 16.7315 14.75 18.2503V21.2503L15.4431 21.2503C17.4714 21.2503 19.1787 19.7321 19.4157 17.7177L19.8578 13.9592C19.0783 14.0611 18.2713 13.9118 17.5629 13.507L17.2524 13.3296Z" fill="#4EB75E"/>
<path d="M13.25 21.2503V18.2503C13.25 17.5599 12.6904 17.0003 12 17.0003C11.3097 17.0003 10.75 17.5599 10.75 18.2503V21.2503H13.25Z" fill="#4EB75E"/>
<path d="M14.1953 3.11611L12.9865 2.91464C12.3334 2.8058 11.6668 2.8058 11.0137 2.91464L9.78972 3.11864L9.74521 3.56274L8.74421 11.1893L8.74371 11.1932L8.69287 11.5966L9.31681 11.9086C11.006 12.7532 12.9942 12.7532 14.6834 11.9086L15.3073 11.5966L15.2565 11.1932L15.256 11.1893L14.2565 3.57412L14.1953 3.11611Z" fill="#4EB75E"/>
<path d="M16.8357 11.7277L18.7251 12.8074C19.2001 13.0788 19.7876 13.0586 20.2428 12.7551C20.7055 12.4466 20.95 11.8998 20.8714 11.3492L20.1266 6.13548C20.0461 5.57219 19.7295 5.06985 19.2561 4.75422L17.5039 3.58614C17.1754 3.36712 16.7894 3.25025 16.3945 3.25025H15.7265L15.7437 3.37892L16.7442 11.0018L16.8357 11.7277Z" fill="#4EB75E"/>
<path d="M7.1645 11.7277L7.25598 11.0018L7.25647 10.998L8.25498 3.39031L8.26901 3.25025H7.60564C7.21079 3.25025 6.82478 3.36712 6.49624 3.58614L4.74413 4.75422C4.27069 5.06985 3.9541 5.57219 3.87363 6.13548L3.12881 11.3492C3.05016 11.8998 3.29465 12.4466 3.75741 12.7551C4.21258 13.0586 4.80011 13.0788 5.27507 12.8074L7.1645 11.7277Z" fill="#4EB75E"/>
</svg>
