<svg width="24" height="24" viewBox="0 0 24 24" fill="none" xmlns="http://www.w3.org/2000/svg">
<path fill-rule="evenodd" clip-rule="evenodd" d="M13.1096 2.17485C12.3748 2.05239 11.6249 2.05239 10.8902 2.17485L8.9378 2.50025H7.60542C7.0625 2.50025 6.53173 2.66095 6.07999 2.96211L4.32788 4.13018C3.6769 4.56417 3.24159 5.25489 3.13094 6.02941L2.38612 11.2431C2.26662 12.0796 2.63808 12.9104 3.34116 13.3792C3.50095 13.4857 3.67148 13.5692 3.84816 13.6297L4.3394 17.8052C4.62083 20.1974 6.64821 22.0002 9.05687 22.0002H15.4429C17.8515 22.0002 19.8789 20.1974 20.1603 17.8052L20.683 13.3626C21.3702 12.8911 21.7317 12.0699 21.6136 11.2431L20.8688 6.02941C20.7581 5.25489 20.3228 4.56417 19.6719 4.13018L17.9197 2.96211C17.468 2.66095 16.9372 2.50025 16.3943 2.50025H15.0619L13.1096 2.17485ZM6.91204 4.21018C7.11738 4.07329 7.35864 4.00025 7.60542 4.00025H8.15028L7.30217 10.7851L4.90275 12.1562C4.67443 12.2867 4.39201 12.277 4.17321 12.1311C3.95077 11.9828 3.83324 11.7199 3.87105 11.4553L4.61587 6.24154C4.66616 5.88949 4.86403 5.57553 5.15993 5.37826L6.91204 4.21018ZM5.64695 13.4586L8.02347 12.1006L8.98118 12.5794C10.8815 13.5296 13.1182 13.5296 15.0186 12.5794L15.9763 12.1006L18.3528 13.4586C18.5971 13.5982 18.8609 13.687 19.13 13.7255L18.6706 17.63C18.4781 19.2667 17.0909 20.5002 15.4429 20.5002H14.7499V18.2502C14.7499 16.7315 13.5187 15.5002 11.9999 15.5002C10.4811 15.5002 9.24987 16.7315 9.24987 18.2502V20.5002H9.05687C7.40884 20.5002 6.02168 19.2667 5.82913 17.63L5.35479 13.5981C5.45456 13.5592 5.55223 13.5127 5.64695 13.4586ZM19.097 12.1562L16.6976 10.7851L15.8495 4.00025H16.3943C16.6411 4.00025 16.8824 4.07329 17.0877 4.21018L18.8398 5.37826C19.1357 5.57553 19.3336 5.88949 19.3839 6.24154L20.1287 11.4553C20.1665 11.7199 20.049 11.9828 19.8265 12.1311C19.6077 12.277 19.3253 12.2867 19.097 12.1562ZM12.863 3.65444L14.325 3.89812L15.1898 10.8167L14.3477 11.2378C12.8697 11.9768 11.13 11.9768 9.652 11.2378L8.80989 10.8167L9.67472 3.89812L11.1368 3.65444C11.7082 3.5592 12.2915 3.5592 12.863 3.65444ZM11.9999 17.0002C12.6902 17.0002 13.2499 17.5599 13.2499 18.2502V20.5002H10.7499V18.2502C10.7499 17.5599 11.3095 17.0002 11.9999 17.0002Z" fill="#616160"/>
</svg>
