<svg width="16" height="16" viewBox="0 0 16 16" fill="none" xmlns="http://www.w3.org/2000/svg">
<path d="M5.18689 3.35355C5.38215 3.15829 5.38215 2.84171 5.18689 2.64645C4.99162 2.45118 4.67504 2.45118 4.47978 2.64645L2.48117 4.64507C2.38987 4.73566 2.33333 4.86123 2.33333 5.00001C2.33333 5.12876 2.382 5.24615 2.46195 5.33478C2.46771 5.34118 2.47366 5.34744 2.47978 5.35356L4.47978 7.35355C4.67504 7.54882 4.99163 7.54882 5.18689 7.35355C5.38215 7.15829 5.38215 6.84171 5.18689 6.64645L4.04044 5.5H9.5C11.433 5.5 13 7.067 13 9C13 10.933 11.433 12.5 9.5 12.5H2.5C2.22386 12.5 2 12.7239 2 13C2 13.2761 2.22386 13.5 2.5 13.5H9.5C11.9853 13.5 14 11.4853 14 9C14 6.51472 11.9853 4.5 9.5 4.5H4.04044L5.18689 3.35355Z" fill="#363538"/>
</svg>
