<svg width="50" height="51" viewBox="0 0 50 51" fill="none" xmlns="http://www.w3.org/2000/svg">
<g clip-path="url(#clip0_722_2974)">
<g filter="url(#filter0_d_722_2974)">
<path fill-rule="evenodd" clip-rule="evenodd" d="M12.1892 14.9494C11.9903 15.6356 11.9903 16.3657 12.1892 17.0519C13.7988 22.6065 18.9238 26.6673 24.9973 26.6673C31.0707 26.6673 36.1958 22.6065 37.8054 17.0519C38.0042 16.3657 38.0042 15.6356 37.8054 14.9494C36.1958 9.39479 31.0707 5.33398 24.9973 5.33398C18.9238 5.33398 13.7988 9.39479 12.1892 14.9494ZM25 21.334C27.9455 21.334 30.3333 18.9462 30.3333 16.0007C30.3333 13.0551 27.9455 10.6673 25 10.6673C22.0545 10.6673 19.6667 13.0551 19.6667 16.0007C19.6667 18.9462 22.0545 21.334 25 21.334Z" fill="#FFFFFA"/>
</g>
</g>
<path d="M19.4944 46.27C20.341 45.59 21.0044 45.0333 21.4844 44.6C21.9644 44.16 22.3677 43.7033 22.6944 43.23C23.0277 42.75 23.1944 42.28 23.1944 41.82C23.1944 41.3867 23.0877 41.0467 22.8744 40.8C22.6677 40.5467 22.331 40.42 21.8644 40.42C21.411 40.42 21.0577 40.5633 20.8044 40.85C20.5577 41.13 20.4244 41.5067 20.4044 41.98H19.5244C19.551 41.2333 19.7777 40.6567 20.2044 40.25C20.631 39.8433 21.181 39.64 21.8544 39.64C22.541 39.64 23.0844 39.83 23.4844 40.21C23.891 40.59 24.0944 41.1133 24.0944 41.78C24.0944 42.3333 23.9277 42.8733 23.5944 43.4C23.2677 43.92 22.8944 44.38 22.4744 44.78C22.0544 45.1733 21.5177 45.6333 20.8644 46.16H24.3044V46.92H19.4944V46.27ZM25.3563 43.31C25.3563 42.1633 25.543 41.27 25.9163 40.63C26.2897 39.9833 26.943 39.66 27.8763 39.66C28.803 39.66 29.453 39.9833 29.8263 40.63C30.1997 41.27 30.3863 42.1633 30.3863 43.31C30.3863 44.4767 30.1997 45.3833 29.8263 46.03C29.453 46.6767 28.803 47 27.8763 47C26.943 47 26.2897 46.6767 25.9163 46.03C25.543 45.3833 25.3563 44.4767 25.3563 43.31ZM29.4863 43.31C29.4863 42.73 29.4463 42.24 29.3663 41.84C29.293 41.4333 29.1363 41.1067 28.8963 40.86C28.663 40.6133 28.323 40.49 27.8763 40.49C27.423 40.49 27.0763 40.6133 26.8363 40.86C26.603 41.1067 26.4463 41.4333 26.3663 41.84C26.293 42.24 26.2563 42.73 26.2563 43.31C26.2563 43.91 26.293 44.4133 26.3663 44.82C26.4463 45.2267 26.603 45.5533 26.8363 45.8C27.0763 46.0467 27.423 46.17 27.8763 46.17C28.323 46.17 28.663 46.0467 28.8963 45.8C29.1363 45.5533 29.293 45.2267 29.3663 44.82C29.4463 44.4133 29.4863 43.91 29.4863 43.31Z" fill="#FFFFFA"/>
<defs>
<filter id="filter0_d_722_2974" x="8.04004" y="2.33398" width="33.9146" height="29.334" filterUnits="userSpaceOnUse" color-interpolation-filters="sRGB">
<feFlood flood-opacity="0" result="BackgroundImageFix"/>
<feColorMatrix in="SourceAlpha" type="matrix" values="0 0 0 0 0 0 0 0 0 0 0 0 0 0 0 0 0 0 127 0" result="hardAlpha"/>
<feOffset dy="1"/>
<feGaussianBlur stdDeviation="2"/>
<feComposite in2="hardAlpha" operator="out"/>
<feColorMatrix type="matrix" values="0 0 0 0 0 0 0 0 0 0 0 0 0 0 0 0 0 0 0.25 0"/>
<feBlend mode="normal" in2="BackgroundImageFix" result="effect1_dropShadow_722_2974"/>
<feBlend mode="normal" in="SourceGraphic" in2="effect1_dropShadow_722_2974" result="shape"/>
</filter>
<clipPath id="clip0_722_2974">
<rect width="32" height="32" fill="white" transform="translate(9)"/>
</clipPath>
</defs>
</svg>
