<svg width="18" height="18" viewBox="0 0 18 18" fill="none" xmlns="http://www.w3.org/2000/svg">
<circle cx="9" cy="9" r="9" fill="#F6AD6D"/>
<path d="M12.9375 9.65503H9.65625V12.9363C9.65625 13.1103 9.58711 13.2772 9.46404 13.4003C9.34097 13.5234 9.17405 13.5925 9 13.5925C8.82595 13.5925 8.65903 13.5234 8.53596 13.4003C8.41289 13.2772 8.34375 13.1103 8.34375 12.9363V9.65503H5.0625C4.88845 9.65503 4.72153 9.58589 4.59846 9.46282C4.47539 9.33975 4.40625 9.17283 4.40625 8.99878C4.40625 8.82473 4.47539 8.65781 4.59846 8.53474C4.72153 8.41167 4.88845 8.34253 5.0625 8.34253H8.34375V5.06128C8.34375 4.88723 8.41289 4.72031 8.53596 4.59724C8.65903 4.47417 8.82595 4.40503 9 4.40503C9.17405 4.40503 9.34097 4.47417 9.46404 4.59724C9.58711 4.72031 9.65625 4.88723 9.65625 5.06128V8.34253H12.9375C13.1115 8.34253 13.2785 8.41167 13.4015 8.53474C13.5246 8.65781 13.5938 8.82473 13.5938 8.99878C13.5938 9.17283 13.5246 9.33975 13.4015 9.46282C13.2785 9.58589 13.1115 9.65503 12.9375 9.65503Z" fill="white"/>
</svg>
