<svg width="30" height="30" viewBox="0 0 30 30" fill="none" xmlns="http://www.w3.org/2000/svg">
<path d="M17.3813 14.2377C17.2565 13.8482 17.038 13.4952 16.745 13.2098C16.452 12.9244 16.0935 12.7152 15.7009 12.6006C15.3082 12.486 14.8934 12.4695 14.4929 12.5526C14.0924 12.6356 13.7184 12.8156 13.4037 13.0769C13.089 13.3382 12.8431 13.6726 12.6878 14.051C12.5325 14.4294 12.4723 14.8401 12.5127 15.2472C12.553 15.6542 12.6927 16.0451 12.9193 16.3856C13.1459 16.7261 13.4526 17.0058 13.8125 17.2002" stroke="black" stroke-width="2" stroke-linecap="round" stroke-linejoin="round"/>
<path d="M12.49 22.2237C9.0875 21.4479 6.17417 19.04 3.75 15C6.75 10 10.5 7.5 15 7.5C19.165 7.5 22.6875 9.64167 25.5675 13.925M22.5 27.5L26.6875 23.395C26.9443 23.1458 27.1486 22.8477 27.2882 22.5183C27.4279 22.1888 27.5002 21.8348 27.5008 21.4769C27.5014 21.1191 27.4302 20.7648 27.2916 20.4349C27.153 20.105 26.9497 19.8063 26.6937 19.5563C26.1717 19.0448 25.4704 18.7578 24.7397 18.7564C24.0089 18.755 23.3065 19.0393 22.7825 19.5487L22.5025 19.8238L22.2237 19.5487C21.7018 19.0377 21.0008 18.7509 20.2703 18.7495C19.5398 18.7481 18.8377 19.0322 18.3138 19.5413C18.0569 19.7904 17.8525 20.0884 17.7127 20.4178C17.5729 20.7472 17.5006 21.1012 17.4999 21.459C17.4992 21.8169 17.5702 22.1712 17.7087 22.5011C17.8472 22.8311 18.0504 23.1299 18.3063 23.38L22.5 27.5Z" stroke="black" stroke-width="2" stroke-linecap="round" stroke-linejoin="round"/>
</svg>
