<svg width="31" height="31" viewBox="0 0 31 31" fill="none" xmlns="http://www.w3.org/2000/svg">
<path d="M15.5 20.6667C17.6401 20.6667 19.375 18.9319 19.375 16.7917C19.375 14.6516 17.6401 12.9167 15.5 12.9167C13.3599 12.9167 11.625 14.6516 11.625 16.7917C11.625 18.9319 13.3599 20.6667 15.5 20.6667Z" stroke="black" stroke-width="1.5"/>
<path d="M2.58325 17.2619C2.58325 13.3029 2.58325 11.3241 3.55071 9.90327C3.97123 9.28584 4.50936 8.75738 5.13429 8.3481C6.06429 7.73714 7.22938 7.51885 9.01317 7.44135C9.86438 7.44135 10.5968 6.80844 10.7634 5.98823C10.8907 5.38743 11.2216 4.84902 11.7 4.464C12.1785 4.07897 12.7752 3.87094 13.3893 3.87506H17.6105C18.8867 3.87506 19.9859 4.75985 20.2365 5.98823C20.4031 6.80844 21.1355 7.44135 21.9867 7.44135C23.7692 7.51885 24.9343 7.73843 25.8655 8.3481C26.492 8.75885 27.0306 9.28714 27.4491 9.90327C28.4166 11.3241 28.4166 13.3029 28.4166 17.2619C28.4166 21.2209 28.4166 23.1984 27.4491 24.6205C27.0286 25.2379 26.4905 25.7664 25.8655 26.1757C24.4176 27.1251 22.4013 27.1251 18.37 27.1251H12.6298C8.59854 27.1251 6.58225 27.1251 5.13429 26.1757C4.5097 25.7659 3.97202 25.237 3.552 24.6192C3.27137 24.2012 3.06471 23.7381 2.94104 23.2501M24.5416 12.9167H23.2499" stroke="black" stroke-width="1.5" stroke-linecap="round"/>
</svg>
