<svg width="25" height="25" viewBox="0 0 25 25" fill="none" xmlns="http://www.w3.org/2000/svg">
<path d="M6.33021 17.7083L4.55521 19.4833C4.29201 19.7465 3.98785 19.8069 3.64271 19.6646C3.29757 19.5222 3.125 19.2635 3.125 18.8885V4.80833C3.125 4.32847 3.28576 3.92813 3.60729 3.60729C3.92882 3.28646 4.32917 3.12569 4.80833 3.125H20.1927C20.6719 3.125 21.0722 3.28576 21.3938 3.60729C21.7153 3.92882 21.8757 4.32917 21.875 4.80833V16.026C21.875 16.5052 21.7146 16.9056 21.3938 17.2271C21.0729 17.5486 20.6726 17.709 20.1927 17.7083H6.33021ZM5.88542 16.6667H20.1927C20.3524 16.6667 20.4993 16.6 20.6333 16.4667C20.7674 16.3333 20.834 16.1865 20.8333 16.026V4.80729C20.8333 4.64757 20.7667 4.50069 20.6333 4.36667C20.5 4.23264 20.3531 4.16597 20.1927 4.16667H4.80729C4.64757 4.16667 4.50069 4.23333 4.36667 4.36667C4.23264 4.5 4.16597 4.64688 4.16667 4.80729V18.3802L5.88542 16.6667ZM7.29167 14.0625H13.5417C13.6903 14.0625 13.8142 14.0128 13.9135 13.9135C14.0128 13.8142 14.0625 13.6903 14.0625 13.5417C14.0625 13.3931 14.0128 13.2691 13.9135 13.1698C13.8142 13.0705 13.6903 13.0208 13.5417 13.0208H7.29167C7.14375 13.0208 7.01979 13.0705 6.91979 13.1698C6.81979 13.2691 6.77014 13.3931 6.77083 13.5417C6.77153 13.6903 6.82118 13.8142 6.91979 13.9135C7.0184 14.0128 7.14236 14.0625 7.29167 14.0625ZM7.29167 10.9375H17.7083C17.8569 10.9375 17.9809 10.8878 18.0802 10.7885C18.1795 10.6892 18.2292 10.5653 18.2292 10.4167C18.2292 10.2681 18.1795 10.1441 18.0802 10.0448C17.9809 9.94549 17.8569 9.89583 17.7083 9.89583H7.29167C7.14375 9.89583 7.01979 9.94549 6.91979 10.0448C6.81979 10.1441 6.77014 10.2681 6.77083 10.4167C6.77153 10.5653 6.82118 10.6892 6.91979 10.7885C7.0184 10.8878 7.14236 10.9375 7.29167 10.9375ZM7.29167 7.8125H17.7083C17.8569 7.8125 17.9809 7.76285 18.0802 7.66354C18.1795 7.56424 18.2292 7.44028 18.2292 7.29167C18.2292 7.14306 18.1795 7.0191 18.0802 6.91979C17.9809 6.82049 17.8569 6.77083 17.7083 6.77083H7.29167C7.14375 6.77083 7.01979 6.82049 6.91979 6.91979C6.81979 7.0191 6.77014 7.14306 6.77083 7.29167C6.77153 7.44028 6.82118 7.56424 6.91979 7.66354C7.0184 7.76285 7.14236 7.8125 7.29167 7.8125Z" fill="#979797"/>
</svg>
