<svg width="19" height="19" viewBox="0 0 19 19" fill="none" xmlns="http://www.w3.org/2000/svg">
<path d="M12.065 1.58334H8.98225C7.58575 1.58334 6.479 1.58334 5.61371 1.70051C4.72229 1.82084 4.00108 2.07418 3.43267 2.64497C2.86346 3.21576 2.61092 3.94014 2.49138 4.83472C2.375 5.70397 2.375 6.81468 2.375 8.21672V12.8385C2.375 14.0323 3.10333 15.0551 4.13804 15.4842C4.085 14.7638 4.085 13.7544 4.085 12.9137V8.94743C4.085 7.9333 4.085 7.05851 4.17842 6.35868C4.27896 5.60818 4.50538 4.88934 5.08646 4.30589C5.66754 3.72243 6.384 3.49522 7.13133 3.39389C7.828 3.30047 8.69883 3.30047 9.70979 3.30047H12.1402C13.1504 3.30047 14.0196 3.30047 14.7171 3.39389C14.5082 2.86053 14.1434 2.40251 13.6703 2.07955C13.1972 1.75658 12.6378 1.58366 12.065 1.58334Z" fill="black"/>
<path d="M5.22498 9.02264C5.22498 6.86455 5.22498 5.78551 5.89314 5.11497C6.56052 4.44443 7.63481 4.44443 9.78498 4.44443H12.065C14.2144 4.44443 15.2894 4.44443 15.9576 5.11497C16.6258 5.78551 16.625 6.86455 16.625 9.02264V12.8385C16.625 14.9966 16.625 16.0756 15.9576 16.7461C15.2894 17.4167 14.2144 17.4167 12.065 17.4167H9.78498C7.6356 17.4167 6.56052 17.4167 5.89314 16.7461C5.22498 16.0756 5.22498 14.9966 5.22498 12.8385V9.02264Z" fill="black"/>
</svg>
