<svg width="26" height="26" viewBox="0 0 26 26" fill="none" xmlns="http://www.w3.org/2000/svg">
<path fill-rule="evenodd" clip-rule="evenodd" d="M9.75 5.41667C9.75 4.84203 9.97827 4.29093 10.3846 3.8846C10.7909 3.47827 11.342 3.25 11.9167 3.25H14.0833C14.658 3.25 15.2091 3.47827 15.6154 3.8846C16.0217 4.29093 16.25 4.84203 16.25 5.41667V9.75H20.5833C21.158 9.75 21.7091 9.97827 22.1154 10.3846C22.5217 10.7909 22.75 11.342 22.75 11.9167V14.0833C22.75 14.658 22.5217 15.2091 22.1154 15.6154C21.7091 16.0217 21.158 16.25 20.5833 16.25H16.25V20.5833C16.25 21.158 16.0217 21.7091 15.6154 22.1154C15.2091 22.5217 14.658 22.75 14.0833 22.75H11.9167C11.342 22.75 10.7909 22.5217 10.3846 22.1154C9.97827 21.7091 9.75 21.158 9.75 20.5833V16.25H5.41667C4.84203 16.25 4.29093 16.0217 3.8846 15.6154C3.47827 15.2091 3.25 14.658 3.25 14.0833V11.9167C3.25 11.342 3.47827 10.7909 3.8846 10.3846C4.29093 9.97827 4.84203 9.75 5.41667 9.75H9.75V5.41667ZM14.0833 5.41667H11.9167V10.8333C11.9167 11.1207 11.8025 11.3962 11.5994 11.5994C11.3962 11.8025 11.1207 11.9167 10.8333 11.9167H5.41667V14.0833H10.8333C11.1207 14.0833 11.3962 14.1975 11.5994 14.4006C11.8025 14.6038 11.9167 14.8793 11.9167 15.1667V20.5833H14.0833V15.1667C14.0833 14.8793 14.1975 14.6038 14.4006 14.4006C14.6038 14.1975 14.8793 14.0833 15.1667 14.0833H20.5833V11.9167H15.1667C14.8793 11.9167 14.6038 11.8025 14.4006 11.5994C14.1975 11.3962 14.0833 11.1207 14.0833 10.8333V5.41667Z" fill="#979797"/>
</svg>
