<svg width="29" height="20" viewBox="0 0 29 20" fill="none" xmlns="http://www.w3.org/2000/svg">
<path d="M14.5 6C15.5488 6 16.5547 6.42143 17.2963 7.17157C18.0379 7.92172 18.4545 8.93913 18.4545 10C18.4545 11.0609 18.0379 12.0783 17.2963 12.8284C16.5547 13.5786 15.5488 14 14.5 14C13.4512 14 12.4453 13.5786 11.7037 12.8284C10.9621 12.0783 10.5455 11.0609 10.5455 10C10.5455 8.93913 10.9621 7.92172 11.7037 7.17157C12.4453 6.42143 13.4512 6 14.5 6ZM14.5 0C21.0909 0 26.7195 4.14667 29 10C26.7195 15.8533 21.0909 20 14.5 20C7.90909 20 2.28045 15.8533 0 10C2.28045 4.14667 7.90909 0 14.5 0ZM2.87364 10C3.93906 12.2004 5.59345 14.0543 7.64872 15.351C9.704 16.6477 12.0777 17.3351 14.5 17.3351C16.9223 17.3351 19.296 16.6477 21.3513 15.351C23.4066 14.0543 25.0609 12.2004 26.1264 10C25.0609 7.79959 23.4066 5.94567 21.3513 4.64899C19.296 3.35232 16.9223 2.66491 14.5 2.66491C12.0777 2.66491 9.704 3.35232 7.64872 4.64899C5.59345 5.94567 3.93906 7.79959 2.87364 10Z" fill="white"/>
</svg>
