<svg width="37" height="37" viewBox="0 0 37 37" fill="none" xmlns="http://www.w3.org/2000/svg">
<path d="M6.1665 18.5001L18.4998 6.16675L30.8332 18.5001M9.24984 16.1876V29.2917C9.24984 29.7006 9.41226 30.0928 9.70138 30.3819C9.9905 30.671 10.3826 30.8334 10.7915 30.8334H15.4165V26.2084C15.4165 25.7995 15.5789 25.4074 15.868 25.1183C16.1572 24.8292 16.5493 24.6667 16.9582 24.6667H20.0415C20.4504 24.6667 20.8425 24.8292 21.1316 25.1183C21.4207 25.4074 21.5832 25.7995 21.5832 26.2084V30.8334H26.2082C26.617 30.8334 27.0092 30.671 27.2983 30.3819C27.5874 30.0928 27.7498 29.7006 27.7498 29.2917V16.1876" stroke="#979797" stroke-width="2" stroke-linecap="round" stroke-linejoin="round"/>
</svg>
