<svg width="34" height="34" viewBox="0 0 34 34" fill="none" xmlns="http://www.w3.org/2000/svg">
<path fill-rule="evenodd" clip-rule="evenodd" d="M15.9986 4.66502C16.2643 4.39944 16.6245 4.25024 17.0002 4.25024C17.3758 4.25024 17.7361 4.39944 18.0018 4.66502L26.5018 13.165L29.3351 15.9984C29.5931 16.2655 29.7359 16.6234 29.7327 16.9948C29.7295 17.3663 29.5805 17.7216 29.3178 17.9843C29.0552 18.2469 28.6998 18.3959 28.3284 18.3991C27.957 18.4024 27.5991 18.2596 27.3319 18.0015L26.9168 17.5864V26.9166C26.9168 27.6681 26.6183 28.3887 26.087 28.9201C25.5556 29.4514 24.8349 29.7499 24.0835 29.7499H19.8335C19.4578 29.7499 19.0974 29.6007 18.8318 29.335C18.5661 29.0693 18.4168 28.709 18.4168 28.3333V24.0833H15.5835V28.3333C15.5835 28.709 15.4342 29.0693 15.1686 29.335C14.9029 29.6007 14.5426 29.7499 14.1668 29.7499H9.91684C9.16539 29.7499 8.44472 29.4514 7.91337 28.9201C7.38201 28.3887 7.0835 27.6681 7.0835 26.9166V17.5864L6.66842 18.0015C6.40123 18.2596 6.04338 18.4024 5.67193 18.3991C5.30049 18.3959 4.94517 18.2469 4.68251 17.9843C4.41985 17.7216 4.27086 17.3663 4.26763 16.9948C4.2644 16.6234 4.4072 16.2655 4.66525 15.9984L7.49859 13.165L15.9986 4.66502Z" fill="white"/>
</svg>
