<svg width="31" height="32" viewBox="0 0 31 32" fill="none" xmlns="http://www.w3.org/2000/svg">
<g clip-path="url(#clip0_1_53)">
<g filter="url(#filter0_d_1_53)">
<path d="M26.2727 12.4267L8.18936 3.09334C7.47571 2.72669 6.66987 2.59616 5.88172 2.71954C5.09357 2.84293 4.36146 3.21424 3.78521 3.78283C3.20896 4.35142 2.81662 5.08964 2.66167 5.89682C2.50672 6.70401 2.59671 7.54088 2.91936 8.29334L6.01936 15.4533C6.0897 15.6265 6.12593 15.8123 6.12593 16C6.12593 16.1877 6.0897 16.3736 6.01936 16.5467L2.91936 23.7067C2.65677 24.3156 2.54576 24.9827 2.59642 25.6472C2.64708 26.3117 2.85781 26.9526 3.20945 27.5116C3.56109 28.0707 4.0425 28.5301 4.60993 28.8483C5.17735 29.1664 5.8128 29.3332 6.45853 29.3333C7.06333 29.3271 7.65912 29.1813 8.20228 28.9067L26.2856 19.5733C26.9271 19.2403 27.4662 18.7297 27.843 18.0988C28.2197 17.4678 28.4192 16.7412 28.4192 16C28.4192 15.2588 28.2197 14.5322 27.843 13.9012C27.4662 13.2703 26.9271 12.7598 26.2856 12.4267H26.2727ZM25.1231 17.1867L7.03978 26.52C6.80232 26.6377 6.53568 26.6776 6.27561 26.6345C6.01554 26.5913 5.77448 26.4671 5.58473 26.2785C5.39499 26.0899 5.26565 25.8459 5.21405 25.5793C5.16245 25.3126 5.19105 25.0361 5.29603 24.7867L8.38311 17.6267C8.42308 17.5311 8.45758 17.4331 8.48645 17.3333H17.386C17.7286 17.3333 18.0571 17.1929 18.2994 16.9428C18.5416 16.6928 18.6777 16.3536 18.6777 16C18.6777 15.6464 18.5416 15.3072 18.2994 15.0572C18.0571 14.8072 17.7286 14.6667 17.386 14.6667H8.48645C8.45758 14.5669 8.42308 14.469 8.38311 14.3733L5.29603 7.21334C5.19105 6.96396 5.16245 6.68741 5.21405 6.42077C5.26565 6.15413 5.39499 5.91015 5.58473 5.72154C5.77448 5.53293 6.01554 5.40872 6.27561 5.36554C6.53568 5.32237 6.80232 5.36231 7.03978 5.48001L25.1231 14.8133C25.3347 14.9252 25.5123 15.0952 25.6362 15.3046C25.7602 15.514 25.8258 15.7546 25.8258 16C25.8258 16.2454 25.7602 16.486 25.6362 16.6954C25.5123 16.9048 25.3347 17.0748 25.1231 17.1867Z" fill="white"/>
</g>
</g>
<defs>
<filter id="filter0_d_1_53" x="0.584473" y="0.674316" width="33.835" height="34.6589" filterUnits="userSpaceOnUse" color-interpolation-filters="sRGB">
<feFlood flood-opacity="0" result="BackgroundImageFix"/>
<feColorMatrix in="SourceAlpha" type="matrix" values="0 0 0 0 0 0 0 0 0 0 0 0 0 0 0 0 0 0 127 0" result="hardAlpha"/>
<feOffset dx="2" dy="2"/>
<feGaussianBlur stdDeviation="2"/>
<feComposite in2="hardAlpha" operator="out"/>
<feColorMatrix type="matrix" values="0 0 0 0 0 0 0 0 0 0 0 0 0 0 0 0 0 0 0.25 0"/>
<feBlend mode="normal" in2="BackgroundImageFix" result="effect1_dropShadow_1_53"/>
<feBlend mode="normal" in="SourceGraphic" in2="effect1_dropShadow_1_53" result="shape"/>
</filter>
<clipPath id="clip0_1_53">
<rect width="31" height="32" fill="white"/>
</clipPath>
</defs>
</svg>
