<svg width="31" height="31" viewBox="0 0 31 31" fill="none" xmlns="http://www.w3.org/2000/svg">
<path d="M3.229 6.45825C3.229 5.9444 3.43313 5.45158 3.79648 5.08823C4.15984 4.72488 4.65265 4.52075 5.1665 4.52075H25.8332C26.347 4.52075 26.8398 4.72488 27.2032 5.08823C27.5665 5.45158 27.7707 5.9444 27.7707 6.45825C27.7707 6.97211 27.5665 7.46492 27.2032 7.82827C26.8398 8.19162 26.347 8.39575 25.8332 8.39575H5.1665C4.65265 8.39575 4.15984 8.19162 3.79648 7.82827C3.43313 7.46492 3.229 6.97211 3.229 6.45825ZM5.1665 13.5624C4.65265 13.5624 4.15984 13.7665 3.79648 14.1299C3.43313 14.4933 3.229 14.9861 3.229 15.4999C3.229 16.0138 3.43313 16.5066 3.79648 16.8699C4.15984 17.2333 4.65265 17.4374 5.1665 17.4374H12.9165C13.4304 17.4374 13.9232 17.2333 14.2865 16.8699C14.6499 16.5066 14.854 16.0138 14.854 15.4999C14.854 14.9861 14.6499 14.4933 14.2865 14.1299C13.9232 13.7665 13.4304 13.5624 12.9165 13.5624H5.1665ZM3.229 24.5416C3.229 24.0277 3.43313 23.5349 3.79648 23.1716C4.15984 22.8082 4.65265 22.6041 5.1665 22.6041H6.45817C6.97203 22.6041 7.46484 22.8082 7.82819 23.1716C8.19154 23.5349 8.39567 24.0277 8.39567 24.5416C8.39567 25.0554 8.19154 25.5483 7.82819 25.9116C7.46484 26.275 6.97203 26.4791 6.45817 26.4791H5.1665C4.65265 26.4791 4.15984 26.275 3.79648 25.9116C3.43313 25.5483 3.229 25.0554 3.229 24.5416ZM16.1457 24.5416C16.1457 24.0277 16.3498 23.5349 16.7132 23.1716C17.0765 22.8082 17.5693 22.6041 18.0832 22.6041H19.3748C19.8887 22.6041 20.3815 22.8082 20.7449 23.1716C21.1082 23.5349 21.3123 24.0277 21.3123 24.5416C21.3123 25.0554 21.1082 25.5483 20.7449 25.9116C20.3815 26.275 19.8887 26.4791 19.3748 26.4791H18.0832C17.5693 26.4791 17.0765 26.275 16.7132 25.9116C16.3498 25.5483 16.1457 25.0554 16.1457 24.5416ZM11.6248 22.6041C11.111 22.6041 10.6182 22.8082 10.2548 23.1716C9.89147 23.5349 9.68734 24.0277 9.68734 24.5416C9.68734 25.0554 9.89147 25.5483 10.2548 25.9116C10.6182 26.275 11.111 26.4791 11.6248 26.4791H12.9165C13.4304 26.4791 13.9232 26.275 14.2865 25.9116C14.6499 25.5483 14.854 25.0554 14.854 24.5416C14.854 24.0277 14.6499 23.5349 14.2865 23.1716C13.9232 22.8082 13.4304 22.6041 12.9165 22.6041H11.6248ZM22.604 24.5416C22.604 24.0277 22.8081 23.5349 23.1715 23.1716C23.5348 22.8082 24.0276 22.6041 24.5415 22.6041H25.8332C26.347 22.6041 26.8398 22.8082 27.2032 23.1716C27.5665 23.5349 27.7707 24.0277 27.7707 24.5416C27.7707 25.0554 27.5665 25.5483 27.2032 25.9116C26.8398 26.275 26.347 26.4791 25.8332 26.4791H24.5415C24.0276 26.4791 23.5348 26.275 23.1715 25.9116C22.8081 25.5483 22.604 25.0554 22.604 24.5416ZM23.1801 11.2077C23.0928 10.953 22.9281 10.7319 22.709 10.5754C22.4899 10.4189 22.2274 10.3348 21.9582 10.3348C21.6889 10.3348 21.4264 10.4189 21.2073 10.5754C20.9882 10.7319 20.8235 10.953 20.7363 11.2077L20.5683 11.696C20.3772 12.2562 20.0602 12.7652 19.6417 13.184C19.2232 13.6027 18.7144 13.9199 18.1542 14.1114L17.666 14.278C17.4113 14.3653 17.1902 14.53 17.0337 14.7491C16.8772 14.9681 16.793 15.2307 16.793 15.4999C16.793 15.7692 16.8772 16.0317 17.0337 16.2508C17.1902 16.4699 17.4113 16.6346 17.666 16.7218L18.1542 16.8898C18.7145 17.0809 19.2235 17.3979 19.6422 17.8164C20.0609 18.2349 20.3782 18.7437 20.5696 19.3039L20.7363 19.7921C20.8235 20.0468 20.9882 20.2679 21.2073 20.4244C21.4264 20.5809 21.6889 20.6651 21.9582 20.6651C22.2274 20.6651 22.4899 20.5809 22.709 20.4244C22.9281 20.2679 23.0928 20.0468 23.1801 19.7921L23.348 19.3039C23.5392 18.7436 23.8562 18.2346 24.2746 17.8159C24.6931 17.3972 25.202 17.0799 25.7621 16.8885L26.2504 16.7218C26.5051 16.6346 26.7262 16.4699 26.8827 16.2508C27.0392 16.0317 27.1233 15.7692 27.1233 15.4999C27.1233 15.2307 27.0392 14.9681 26.8827 14.7491C26.7262 14.53 26.5051 14.3653 26.2504 14.278L25.7621 14.1101C25.2019 13.9189 24.6928 13.6019 24.2741 13.1835C23.8554 12.765 23.5382 12.2561 23.3467 11.696L23.1801 11.2077Z" fill="black"/>
</svg>
