<svg width="11" height="11" viewBox="0 0 11 11" fill="none" xmlns="http://www.w3.org/2000/svg">
<path d="M5.50016 4.125C5.13549 4.125 4.78575 4.26987 4.52789 4.52773C4.27003 4.78559 4.12516 5.13533 4.12516 5.5C4.12516 5.86467 4.27003 6.21441 4.52789 6.47227C4.78575 6.73013 5.13549 6.875 5.50016 6.875C5.86484 6.875 6.21457 6.73013 6.47243 6.47227C6.7303 6.21441 6.87516 5.86467 6.87516 5.5C6.87516 5.13533 6.7303 4.78559 6.47243 4.52773C6.21457 4.26987 5.86484 4.125 5.50016 4.125ZM5.50016 7.79167C4.89237 7.79167 4.30948 7.55022 3.87971 7.12045C3.44994 6.69068 3.2085 6.10779 3.2085 5.5C3.2085 4.89221 3.44994 4.30932 3.87971 3.87955C4.30948 3.44978 4.89237 3.20833 5.50016 3.20833C6.10795 3.20833 6.69084 3.44978 7.12062 3.87955C7.55039 4.30932 7.79183 4.89221 7.79183 5.5C7.79183 6.10779 7.55039 6.69068 7.12062 7.12045C6.69084 7.55022 6.10795 7.79167 5.50016 7.79167ZM5.50016 2.0625C3.2085 2.0625 1.25141 3.48792 0.458496 5.5C1.25141 7.51208 3.2085 8.9375 5.50016 8.9375C7.79183 8.9375 9.74891 7.51208 10.5418 5.5C9.74891 3.48792 7.79183 2.0625 5.50016 2.0625Z" fill="white"/>
</svg>
