<svg width="32" height="32" viewBox="0 0 32 32" fill="none" xmlns="http://www.w3.org/2000/svg">
<path d="M11.6459 31.8334L11.0125 26.7667C10.6695 26.6348 10.3465 26.4765 10.0435 26.2917C9.74058 26.107 9.44344 25.9091 9.15211 25.698L4.44169 27.6772L0.0875244 20.1563L4.16461 17.0688C4.13822 16.8841 4.12502 16.7062 4.12502 16.5352V15.4665C4.12502 15.2944 4.13822 15.1161 4.16461 14.9313L0.0875244 11.8438L4.44169 4.323L9.15211 6.30217C9.44239 6.09105 9.74586 5.89314 10.0625 5.70842C10.3792 5.52369 10.6959 5.36536 11.0125 5.23341L11.6459 0.166748H20.3542L20.9875 5.23341C21.3306 5.36536 21.6541 5.52369 21.9581 5.70842C22.2621 5.89314 22.5587 6.09105 22.8479 6.30217L27.5584 4.323L31.9125 11.8438L27.8354 14.9313C27.8618 15.1161 27.875 15.2944 27.875 15.4665V16.5337C27.875 16.7057 27.8486 16.8841 27.7959 17.0688L31.8729 20.1563L27.5188 27.6772L22.8479 25.698C22.5577 25.9091 22.2542 26.107 21.9375 26.2917C21.6209 26.4765 21.3042 26.6348 20.9875 26.7667L20.3542 31.8334H11.6459ZM16.0792 21.5417C17.6097 21.5417 18.916 21.0008 19.9979 19.9188C21.0799 18.8369 21.6209 17.5306 21.6209 16.0001C21.6209 14.4695 21.0799 13.1633 19.9979 12.0813C18.916 10.9994 17.6097 10.4584 16.0792 10.4584C14.5222 10.4584 13.2091 10.9994 12.1399 12.0813C11.0706 13.1633 10.5365 14.4695 10.5375 16.0001C10.5386 17.5306 11.0732 18.8369 12.1414 19.9188C13.2097 21.0008 14.5222 21.5417 16.0792 21.5417Z" fill="#F6AD6D"/>
</svg>
