<svg width="38" height="38" viewBox="0 0 38 38" fill="none" xmlns="http://www.w3.org/2000/svg">
<path d="M14.6459 34.8334L14.0125 29.7667C13.6695 29.6347 13.3465 29.4764 13.0435 29.2917C12.7406 29.107 12.4434 28.909 12.1521 28.6979L7.44169 30.6771L3.08752 23.1563L7.16461 20.0688C7.13822 19.884 7.12502 19.7062 7.12502 19.5352V18.4664C7.12502 18.2944 7.13822 18.116 7.16461 17.9313L3.08752 14.8438L7.44169 7.32294L12.1521 9.3021C12.4424 9.09099 12.7459 8.89308 13.0625 8.70835C13.3792 8.52363 13.6959 8.3653 14.0125 8.23335L14.6459 3.16669H23.3542L23.9875 8.23335C24.3306 8.3653 24.6541 8.52363 24.9581 8.70835C25.2621 8.89308 25.5587 9.09099 25.8479 9.3021L30.5584 7.32294L34.9125 14.8438L30.8354 17.9313C30.8618 18.116 30.875 18.2944 30.875 18.4664V19.5336C30.875 19.7057 30.8486 19.884 30.7959 20.0688L34.8729 23.1563L30.5188 30.6771L25.8479 28.6979C25.5577 28.909 25.2542 29.107 24.9375 29.2917C24.6209 29.4764 24.3042 29.6347 23.9875 29.7667L23.3542 34.8334H14.6459ZM19.0792 24.5417C20.6097 24.5417 21.916 24.0007 22.9979 22.9188C24.0799 21.8368 24.6209 20.5306 24.6209 19C24.6209 17.4695 24.0799 16.1632 22.9979 15.0813C21.916 13.9993 20.6097 13.4584 19.0792 13.4584C17.5222 13.4584 16.2091 13.9993 15.1399 15.0813C14.0706 16.1632 13.5365 17.4695 13.5375 19C13.5386 20.5306 14.0732 21.8368 15.1414 22.9188C16.2097 24.0007 17.5222 24.5417 19.0792 24.5417Z" fill="#898585"/>
</svg>
