<svg width="35" height="35" viewBox="0 0 35 35" fill="none" xmlns="http://www.w3.org/2000/svg">
<path d="M24.7915 32.0834C23.5762 32.0834 22.5432 31.6581 21.6925 30.8074C20.8419 29.9567 20.4165 28.9237 20.4165 27.7084C20.4165 27.5626 20.453 27.2223 20.5259 26.6876L10.2811 20.7084C9.8922 21.073 9.44255 21.3588 8.93213 21.5659C8.42171 21.773 7.87484 21.8761 7.2915 21.8751C6.07623 21.8751 5.04324 21.4497 4.19255 20.599C3.34185 19.7483 2.9165 18.7154 2.9165 17.5001C2.9165 16.2848 3.34185 15.2518 4.19255 14.4011C5.04324 13.5504 6.07623 13.1251 7.2915 13.1251C7.87484 13.1251 8.42171 13.2286 8.93213 13.4357C9.44255 13.6428 9.8922 13.9281 10.2811 14.2917L20.5259 8.31258C20.4773 8.14244 20.4471 7.97862 20.4355 7.82112C20.4238 7.66362 20.4175 7.48716 20.4165 7.29175C20.4165 6.07647 20.8419 5.04348 21.6925 4.19279C22.5432 3.3421 23.5762 2.91675 24.7915 2.91675C26.0068 2.91675 27.0398 3.3421 27.8905 4.19279C28.7412 5.04348 29.1665 6.07647 29.1665 7.29175C29.1665 8.50703 28.7412 9.54001 27.8905 10.3907C27.0398 11.2414 26.0068 11.6667 24.7915 11.6667C24.2082 11.6667 23.6613 11.5632 23.1509 11.3561C22.6405 11.149 22.1908 10.8637 21.8019 10.5001L11.5571 16.4792C11.6057 16.6494 11.6364 16.8137 11.649 16.9722C11.6616 17.1306 11.6675 17.3066 11.6665 17.5001C11.6655 17.6936 11.6597 17.87 11.649 18.0295C11.6383 18.1889 11.6077 18.3527 11.5571 18.5209L21.8019 24.5001C22.1908 24.1355 22.6405 23.8501 23.1509 23.644C23.6613 23.4379 24.2082 23.3344 24.7915 23.3334C26.0068 23.3334 27.0398 23.7588 27.8905 24.6095C28.7412 25.4601 29.1665 26.4931 29.1665 27.7084C29.1665 28.9237 28.7412 29.9567 27.8905 30.8074C27.0398 31.6581 26.0068 32.0834 24.7915 32.0834Z" fill="white"/>
</svg>
