<svg width="34" height="30" viewBox="0 0 34 30" fill="none" xmlns="http://www.w3.org/2000/svg">
<path d="M32.2764 10.9704L29.5815 1.76726C29.5245 1.57268 29.404 1.40153 29.2384 1.2797C29.0728 1.15787 28.871 1.092 28.6636 1.09204H22.2255L22.9811 9.94592C22.9928 10.0882 23.039 10.2258 23.1159 10.3472C23.1928 10.4687 23.2982 10.5705 23.4234 10.6444C24.0438 11.0061 25.256 11.6735 26.2026 11.9576C27.8188 12.4435 30.1797 12.268 31.5255 12.1066C31.6563 12.0901 31.7819 12.046 31.8935 11.9772C32.005 11.9085 32.0998 11.8168 32.1713 11.7086C32.2428 11.6004 32.2893 11.4783 32.3074 11.3508C32.3256 11.2233 32.315 11.0935 32.2764 10.9704Z" stroke="#F6AD6D" stroke-width="1.5"/>
<path d="M19.8392 11.9576C20.7428 11.686 21.8882 11.0666 22.5277 10.6972C22.6765 10.6103 22.7972 10.4843 22.876 10.3336C22.9548 10.1829 22.9885 10.0136 22.9731 9.84503L22.2254 1.09204H11.0896L10.3419 9.84503C10.3262 10.0138 10.3598 10.1835 10.4386 10.3345C10.5174 10.4855 10.6382 10.6118 10.7873 10.6988C11.4268 11.0666 12.5722 11.686 13.4758 11.9576C15.851 12.6716 17.4641 12.6716 19.8392 11.9576Z" stroke="#F6AD6D" stroke-width="1.5"/>
<path d="M3.7336 1.76726L1.03872 10.9719C1.00068 11.0948 0.99051 11.2244 1.00892 11.3515C1.02732 11.4786 1.07386 11.6003 1.14531 11.7081C1.21675 11.8159 1.31139 11.9073 1.42264 11.9758C1.5339 12.0444 1.65911 12.0885 1.78959 12.1051C3.13385 12.268 5.49624 12.4419 7.11254 11.9576C8.05908 11.6735 9.27289 11.0061 9.89173 10.646C10.0171 10.5719 10.1227 10.4698 10.1996 10.3481C10.2765 10.2264 10.3225 10.0885 10.334 9.94592L11.0896 1.09204H4.65151C4.4441 1.092 4.24231 1.15787 4.07669 1.2797C3.91108 1.40153 3.79063 1.57268 3.7336 1.76726Z" stroke="#F6AD6D" stroke-width="1.5"/>
<path d="M2.33997 11.9576V25.9276C2.33997 26.7509 2.67518 27.5406 3.27186 28.1228C3.86854 28.705 4.67781 29.032 5.52164 29.032H27.7934C28.6372 29.032 29.4465 28.705 30.0432 28.1228C30.6398 27.5406 30.975 26.7509 30.975 25.9276V11.9576" stroke="#F6AD6D" stroke-width="1.5"/>
</svg>
